<svg id="Grupo_334" data-name="Grupo 334" xmlns="http://www.w3.org/2000/svg" width="44.323" height="43.091" viewBox="0 0 44.323 43.091">
  <rect id="Area_SIZE:MEDIUM_STATE:DEFAULT_STYLE:STYLE3_" data-name="Area [SIZE:MEDIUM][STATE:DEFAULT][STYLE:STYLE3]" width="44.322" height="43.091" rx="21.546" fill="#e5383e"/>
  <rect id="Area_ICON:feather_twitter_SIZE:MEDIUM_STATE:DEFAULT_STYLE:STYLE3_" data-name="Area [ICON:feather/twitter][SIZE:MEDIUM][STATE:DEFAULT][STYLE:STYLE3]" width="17.852" height="18.468" transform="translate(13.543 12.312)" fill="#e5383e" opacity="0"/>
  <path id="Path" d="M17.57,2.5a8.3,8.3,0,0,1-2.389,1.164A3.408,3.408,0,0,0,9.2,5.945v.76A8.11,8.11,0,0,1,2.355,3.26s-3.043,6.847,3.8,9.89A8.853,8.853,0,0,1,.833,14.671c6.847,3.8,15.215,0,15.215-8.748a3.413,3.413,0,0,0-.061-.632A5.867,5.867,0,0,0,17.57,2.5Z" transform="translate(12.583 12.208)" fill="#f9f9f9"/>
</svg>
